<svg xmlns="http://www.w3.org/2000/svg" viewBox="0 0 83 15" fill="white"><path d="M59.2,1.5h-1.9v11.9h1.9V1.5z M63.3,1.4h-1.9v1.9h1.9V1.4z M63.3,4.8h-1.9v8.7h1.9V4.8z M67.2,4.8h-1.8v8.7h1.9V8.7c0-2,1-2.6,2.1-2.6c1.5,0,1.7,1.1,1.7,2.3v5H73V7.6c0-2-0.9-3.1-2.9-3.1c-1.3,0-2.2,0.5-2.9,1.5V4.8z M82.7,4.8h-2.4l-3.5,3.4V1.5H75v11.9h1.9v-3.1L78,9.2l2.6,4.2H83l-3.6-5.5L82.7,4.8z"/><path d="M23.2,1.4v4.4l0,0c0.1-0.2,0.3-0.4,0.5-0.6s0.4-0.3,0.6-0.4s0.5-0.2,0.7-0.3c0.2-0.1,0.5-0.1,0.7-0.1c0.6,0,1.2,0.1,1.8,0.4c0.5,0.2,0.9,0.6,1.3,1c0.3,0.4,0.6,0.9,0.8,1.5c0.2,0.6,0.3,1.2,0.3,1.8s-0.1,1.1-0.2,1.7c-0.1,0.5-0.4,1-0.7,1.4c-0.3,0.4-0.7,0.8-1.2,1c-0.5,0.3-1.1,0.4-1.7,0.4c-0.3,0-0.6,0-0.9-0.1c-0.3,0-0.6-0.1-0.8-0.2c-0.3-0.1-0.5-0.3-0.7-0.4c-0.2-0.2-0.4-0.4-0.5-0.7l0,0v1.2h-1.8v-12H23.2z M28,9c0-0.4-0.1-0.8-0.2-1.1c-0.1-0.3-0.2-0.7-0.5-1c-0.2-0.3-0.5-0.5-0.8-0.7C26.3,6,25.9,6,25.6,6c-0.7,0-1.4,0.3-1.8,0.8c-0.4,0.7-0.7,1.4-0.6,2.2c0,0.4,0.1,0.8,0.2,1.2c0.1,0.3,0.3,0.7,0.5,1s0.5,0.5,0.8,0.6c0.3,0.2,0.7,0.2,1,0.2c0.4,0,0.8-0.1,1.1-0.3c0.3-0.2,0.6-0.4,0.7-0.7c0.2-0.3,0.3-0.6,0.4-1C27.9,9.8,28,9.4,28,9z M38.2,11.4c0,0.2,0,0.3,0.1,0.5c0.1,0.1,0.2,0.2,0.4,0.2h0.2c0.1,0,0.2,0,0.3,0v1.3c-0.1,0-0.2,0-0.3,0.1c-0.1,0-0.2,0.1-0.3,0.1s-0.2,0-0.3,0.1c-0.1,0-0.2,0-0.3,0c-0.3,0-0.7-0.1-1-0.2c-0.3-0.2-0.5-0.5-0.5-0.8c-0.4,0.4-0.9,0.7-1.4,0.8c-0.5,0.2-1.1,0.2-1.6,0.3c-0.4,0-0.8-0.1-1.1-0.2c-0.3-0.1-0.7-0.3-0.9-0.5c-0.3-0.2-0.5-0.5-0.7-0.8s-0.3-0.7-0.2-1.1c0-0.5,0.1-0.9,0.3-1.3c0.2-0.3,0.4-0.6,0.8-0.8c0.3-0.2,0.7-0.3,1.1-0.4c0.4-0.1,0.8-0.1,1.2-0.2c0.3-0.1,0.7-0.1,1-0.1s0.6-0.1,0.8-0.1c0-0.3,0.2-0.4,0.4-0.5c0.2-0.2,0.2-0.4,0.2-0.6s-0.1-0.4-0.2-0.6c-0.1-0.2-0.3-0.3-0.4-0.4C35.6,6.1,35.4,6,35.2,6s-0.4,0-0.6,0c-0.5,0-0.9,0.1-1.3,0.3c-0.3,0.2-0.6,0.6-0.6,1h-1.9c0-0.5,0.2-1,0.4-1.4c0.2-0.4,0.5-0.7,0.9-0.9c0.4-0.2,0.8-0.4,1.2-0.5c0.5-0.1,0.9-0.1,1.4-0.1c0.4,0,0.8,0,1.3,0.1c0.4,0.1,0.8,0.2,1.1,0.4c0.3,0.2,0.6,0.5,0.8,0.8s0.3,0.8,0.3,1.2L38.2,11.4z M36.3,9c-0.3,0.2-0.7,0.3-1.1,0.3c-0.4,0-0.8,0.1-1.3,0.2c-0.2,0-0.4,0.1-0.6,0.1c-0.2,0.1-0.3,0.1-0.5,0.3c-0.1,0.1-0.3,0.3-0.3,0.4c-0.1,0.2-0.1,0.4-0.1,0.6c0,0.2,0.1,0.4,0.2,0.5c0.1,0.1,0.3,0.3,0.4,0.3c0.2,0.1,0.4,0.1,0.6,0.2c0.2,0,0.4,0.1,0.6,0.1c0.2,0,0.5,0,0.7-0.1s0.5-0.2,0.7-0.3s0.4-0.3,0.5-0.5c0.2-0.2,0.2-0.5,0.2-0.8C36.3,10.3,36.3,9,36.3,9z M41.2,4.7V6l0,0c0.3-0.5,0.7-0.9,1.1-1.1c0.5-0.3,1-0.4,1.6-0.4c0.8,0,1.6,0.2,2.2,0.7c0.6,0.6,0.9,1.4,0.8,2.2v5.9H45V7.9c0-0.5-0.1-1-0.4-1.5c-0.3-0.3-0.8-0.5-1.3-0.5c-0.3,0-0.6,0.1-0.9,0.2c-0.3,0.1-0.5,0.3-0.7,0.5s-0.3,0.5-0.4,0.7c-0.1,0.3-0.2,0.6-0.2,0.9v5.1h-1.9V4.7H41.2z M56.3,13.3h-1.8v-1.2l0,0c-0.2,0.5-0.6,0.9-1.1,1.1c-0.5,0.2-1,0.3-1.6,0.3s-1.2-0.1-1.8-0.4c-0.5-0.2-0.9-0.6-1.3-1c-0.3-0.4-0.6-0.9-0.8-1.5s-0.3-1.2-0.3-1.8c0-0.7,0.1-1.4,0.3-2c0.2-0.5,0.5-1,0.8-1.4s0.7-0.6,1.2-0.8c0.4-0.2,0.9-0.3,1.4-0.3c0.3,0,0.6,0,0.8,0.1c0.3,0.1,0.5,0.1,0.8,0.2s0.5,0.3,0.7,0.4c0.2,0.2,0.4,0.4,0.5,0.6l0,0V1.4H56L56.3,13.3L56.3,13.3z M49.7,9.1c0,0.4,0,0.7,0.1,1.1c0.1,0.3,0.2,0.7,0.4,0.9c0.4,0.6,1.1,0.9,1.8,0.9c0.4,0,0.8-0.1,1.1-0.3s0.6-0.4,0.8-0.7s0.3-0.6,0.4-1c0.1-0.4,0.1-0.7,0.1-1.1c0-0.8-0.2-1.6-0.6-2.2c-0.4-0.5-1.1-0.8-1.8-0.8c-0.4,0-0.8,0.1-1.1,0.3c-0.3,0.2-0.6,0.4-0.8,0.7c-0.2,0.3-0.3,0.6-0.4,1C49.7,8.3,49.7,8.7,49.7,9.1z"/><path d="M5.6,0C2.5,0,0,2.5,0,5.6V15h6.5c5,0,9-4,9-9V0H5.6L5.6,0z M12.1,6.2c0,0.1,0,0.1-0.1,0.2l-1.9,1.9C10,8.3,10,8.4,10,8.6l0.4,2.7c0,0.2-0.1,0.4-0.3,0.4c-0.1,0-0.2,0-0.2,0l-2.3-1.3c-0.1-0.1-0.2-0.1-0.3,0L5,11.7c-0.2,0.1-0.4,0-0.5-0.1c0-0.1-0.1-0.1,0-0.2l0.4-2.7c0-0.1,0-0.2-0.1-0.3l-1.9-2C2.8,6.2,2.8,6,2.9,5.9c0-0.1,0.1-0.1,0.2-0.1l2.6-0.4c0.1,0,0.2-0.1,0.3-0.2l1.2-2.4c0.1-0.2,0.3-0.2,0.5-0.2c0.1,0,0.1,0.1,0.2,0.2l1.2,2.4C9,5.3,9.1,5.4,9.2,5.4l2.6,0.4C12,5.8,12.1,6,12.1,6.2z"/><script xmlns=""/></svg>