<svg xmlns="http://www.w3.org/2000/svg" viewBox="0 0 867.9 867.9" width="867.9" height="867.9" fill="#ffffff"><g><g id="svg_1" transform="translate(0,1024) scale(0.10000000149011612,-0.10000000149011612) "><path id="svg_2" d="M4029.4,10229.2c-1036-77-1981-503-2723-1228c-976-952-1444-2300-1271-3654c216-1693,1410-3103,3050-3602c1268-386,2679-157,3754,608c1321,941,2008,2502,1804,4100c-216,1693-1410,3103-3050,3602C5105.4,10204.2,4536.4,10267.2,4029.4,10229.2z M6339.4,8252.2c306-95,531-344,579-642c7-39,11-257,11-542v-478h-659h-659l-77,95c-365,450-900,639-1510,535c-293-50-544-179-751-385c-55-55-124-133-153-172l-54-73h-659h-659l3,523l3,522l28,80c77,227,256,420,470,507c145,59,54,57,2117,55l1895-2L6339.4,8252.2z M4531.4,6636.2c351-69,654-352,742-691c109-425-62-844-445-1088c-222-141-535-176-796-87c-305,104-548,367-635,689c-31,112-31,342,0,464c88,353,385,639,742,712C4227.4,6653.2,4440.4,6653.2,4531.4,6636.2z M2792.4,5918.2c-4-40-8-156-7-258c1-271,38-432,154-665c186-375,554-687,948-804c166-49,298-64,507-58c197,6,270,18,435,73c210,70,399,187,578,359c256,245,410,522,469,845c23,125,23,415,1,513l-16,67h534h534v-1079c0-1181,1-1155-59-1306c-99-246-342-449-596-497c-104-19-3792-19-3880,0c-163,37-300,117-422,246c-84,89-131,160-170,256c-53,133-53,125-53,1296v1084h526h525L2792.4,5918.2z"/><path id="svg_3" d="M5852.4,7834.2c-58-29-63-53-63-334c0-277,2-288,63-334l34-26h262c288,0,307,3,336,60c23,44,22,537-1,585c-28,61-51,65-341,65C5928.4,7850.2,5879.4,7847.2,5852.4,7834.2z"/></g></g></svg>