<svg version="1.1" xmlns="http://www.w3.org/2000/svg" viewBox="0 0 867.88 867.9" fill="#ffffff"><path d="M864.34,378.68c-21.6-169.3-141-310.3-305-360.2c-48.8-14.9-105.7-21.2-156.4-17.4c-103.6,7.7-198.1,50.3-272.3,122.8c-97.6,95.2-144.4,230-127.1,365.4c21.6,169.3,141,310.3,305,360.2c126.8,38.6,267.9,15.7,375.4-60.8C816.04,694.58,884.74,538.48,864.34,378.68z M640.15,328.58c0.16,4.14,0.25,8.29,0.25,12.47c0,167.46-135.76,303.24-303.24,303.24c-59.61,0-115.23-17.21-162.11-46.94l-0.03-0.01c91.67,13.69,156.24-44.65,156.24-44.65c-81.66-6.35-97.8-74.31-97.8-74.31c28.85,4.88,46.94-1.97,46.94-1.97c-91.92-21.51-84.1-105.62-84.1-105.62c21.29,12.72,45.96,13.7,45.96,13.7c-81.16-71.39-30.31-140.82-30.31-140.82c85.1,103.05,210.18,110.06,218.39,110.4c-1.8-7.75-2.76-15.81-2.76-24.1c0-58.73,47.63-106.35,106.41-106.35c30.64,0,58.25,12.94,77.67,33.67c5.38-1.51,10.61-3.14,15.59-4.8c30.13-10.05,51.65-21.54,51.65-21.54c-5.19,31.11-43.55,57.22-46.3,59.06c-0.1,0.07-0.16,0.1-0.16,0.1c0.06,0,0.13-0.01,0.19-0.01c29.78-2.98,60.2-15.62,60.2-15.62C683.67,293.78,646.21,323.81,640.15,328.58z"/></svg>